<?xml version="1.0" encoding="UTF-8" standalone="no"?>
<svg
   width="74mm"
   height="87mm"
   viewBox="-1 -87 74 87"
   version="1.1"
   id="svg62106"
   sodipodi:docname="frontside_R.svg"
   inkscape:version="1.1.2 (0a00cf5339, 2022-02-04)"
   xmlns:inkscape="http://www.inkscape.org/namespaces/inkscape"
   xmlns:sodipodi="http://sodipodi.sourceforge.net/DTD/sodipodi-0.dtd"
   xmlns="http://www.w3.org/2000/svg"
   xmlns:svg="http://www.w3.org/2000/svg"
   xmlns:rdf="http://www.w3.org/1999/02/22-rdf-syntax-ns#"
   xmlns:cc="http://creativecommons.org/ns#"
   xmlns:dc="http://purl.org/dc/elements/1.1/">
  <defs
     id="defs62110" />
  <sodipodi:namedview
     id="namedview62108"
     pagecolor="#505050"
     bordercolor="#eeeeee"
     borderopacity="1"
     inkscape:pageshadow="0"
     inkscape:pageopacity="0"
     inkscape:pagecheckerboard="0"
     inkscape:document-units="mm"
     showgrid="false"
     inkscape:zoom="5.7265565"
     inkscape:cx="139.87463"
     inkscape:cy="164.40945"
     inkscape:window-width="3822"
     inkscape:window-height="2117"
     inkscape:window-x="3847"
     inkscape:window-y="32"
     inkscape:window-maximized="1"
     inkscape:current-layer="svg62106" />
  <title
     id="title62102">OpenSCAD Model</title>
  <path
     d="m 59.067059,-2.10001 v -2.99997 h -4.9999 v 2.99997 z"
     id="path62200"
     style="vector-effect:non-scaling-stroke;fill:none;stroke:#000000;stroke-width:0.00264583;stroke-miterlimit:4;stroke-dasharray:none;stroke-opacity:1;-inkscape-stroke:hairline" />
  <path
     d="m 49.067159,-2.10001 v -2.99997 h -5 v 2.99997 z"
     id="path62198"
     style="vector-effect:non-scaling-stroke;fill:none;stroke:#000000;stroke-width:0.00264583;stroke-miterlimit:4;stroke-dasharray:none;stroke-opacity:1;-inkscape-stroke:hairline" />
  <path
     d="m 26.679359,-2.10001 v -2.99997 h -5 v 2.99997 z"
     id="path62196"
     style="vector-effect:non-scaling-stroke;fill:none;stroke:#000000;stroke-width:0.00264583;stroke-miterlimit:4;stroke-dasharray:none;stroke-opacity:1;-inkscape-stroke:hairline" />
  <path
     d="m 16.679359,-2.10001 v -2.99997 h -5 v 2.99997 z"
     id="path62194"
     style="vector-effect:non-scaling-stroke;fill:none;stroke:#000000;stroke-width:0.00264583;stroke-miterlimit:4;stroke-dasharray:none;stroke-opacity:1;-inkscape-stroke:hairline" />
  <path
     d="m -0.114441,-13.2491 h 3 v -4.8 h -3 v -5.2 h 3 v -4.8 h -3 v -26.2982 h 3 v -4.8 h -3 v -5.2 h 3 v -4.8 h -3 v -16.9991 l 3.3262,3.9641 2.2982,-1.9283 3.3425,3.9834 -2.2982,1.9283 3.0854,3.6771 2.2981,-1.9284 3.3425,3.9834 -2.2981,1.9284 8.8634,10.563 2.2981,-1.9284 3.3425,3.9834 -2.2981,1.9284 3.0854,3.677 2.2981,-1.9284 3.3425,3.9835 -2.2981,1.9283 8.8633,10.563 2.2982,-1.9284 3.3425,3.9835 -2.2982,1.9283 3.0854,3.677 2.2981,-1.9283 3.3425,3.9834 -2.2981,1.9284 8.8634,10.5629 2.2981,-1.9283 3.34252,3.9834 -2.29813,1.9284 3.08538,3.67699 2.29814,-1.92837 3.342482,3.98344 -2.298122,1.92836 L 72.1709,0 H -0.114441 Z"
     id="path62104"
     style="vector-effect:non-scaling-stroke;fill:none;stroke:#000000;stroke-width:0.00264583;stroke-miterlimit:4;stroke-dasharray:none;stroke-opacity:1;-inkscape-stroke:hairline" />
  <metadata
     id="metadata1850">
    <rdf:RDF>
      <cc:Work
         rdf:about="">
        <dc:title>OpenSCAD Model</dc:title>
      </cc:Work>
    </rdf:RDF>
  </metadata>
</svg>
